<svg xmlns="http://www.w3.org/2000/svg" width="369" height="142" viewBox="0 0 369 142" fill="none"><path fill-rule="evenodd" clip-rule="evenodd" d="M43.5071 101.728C46.5573 97.6273 53.1011 97.6273 56.1408 101.738C56.4469 102.15 56.716 102.604 56.9429 103.094H60.6001L51.6657 83.6689H48.0085L39.0372 103.094H42.6944C42.9266 102.598 43.1957 102.145 43.5018 101.728H43.5071ZM46.2248 95.8435C48.5574 95.11 51.1063 95.11 53.4336 95.8435L49.8345 88.0174L46.2248 95.8383V95.8435Z" fill="#E3DFD6"></path><path d="M16.9098 97.7275L19.0998 99.8701C16.9995 102.176 14.4031 103.332 11.2948 103.332C8.18648 103.332 5.66923 102.393 3.63749 100.498C1.60048 98.6036 0.58197 96.2077 0.58197 93.3263C0.58197 90.4449 1.61631 87.9963 3.7061 86.0754C5.78006 84.1545 8.38702 83.1887 11.5481 83.1887C14.7092 83.1887 17.2686 84.3022 19.4059 86.5239L17.2422 88.7932C16.2712 87.8907 15.353 87.2628 14.5033 86.925C13.6379 86.5873 12.6299 86.4131 11.4742 86.4131C9.38969 86.4131 7.65876 87.0517 6.25501 88.3182C4.86182 89.5847 4.15466 91.2049 4.15466 93.1574C4.15466 95.11 4.85126 96.7354 6.23918 98.0864C7.61654 99.4426 9.26831 100.108 11.184 100.108C12.3397 100.108 13.3476 99.9334 14.1867 99.5535C15.0363 99.1893 15.944 98.5772 16.915 97.7222L16.9098 97.7275Z" fill="#E3DFD6"></path><path d="M84.6273 88.5558C84.6273 89.3685 84.9545 89.9701 85.5825 90.3395C86.2263 90.7933 87.5773 91.2577 89.6618 91.7327C91.8413 92.234 93.4403 92.9253 94.4482 93.8014C95.4562 94.6774 95.9681 95.9334 95.9681 97.5746C95.9681 99.2158 95.2979 100.683 93.9469 101.738C92.6117 102.804 90.8544 103.332 88.7013 103.332C85.5666 103.332 82.7433 102.277 80.2313 100.16L82.3844 97.6907C84.4953 99.4216 86.6221 100.277 88.7857 100.277C89.8623 100.277 90.7383 100.05 91.4085 99.5852C92.0629 99.1208 92.4059 98.5192 92.4059 97.7804C92.4059 97.0416 92.1051 96.4505 91.5141 96.0231C90.9125 95.6062 89.8517 95.2209 88.3266 94.8674C85.7038 94.2921 83.8674 93.6008 82.8436 92.8092C81.6509 91.9332 81.0599 90.5875 81.0599 88.7985C81.0599 87.0095 81.7301 85.6744 83.0547 84.6876C84.3792 83.6954 86.0838 83.1941 88.1683 83.1941C90.96 83.1941 93.3506 83.9857 95.3401 85.5372L93.5194 88.0069C92.9178 87.4687 92.0893 87.0412 91.0655 86.714C90.0417 86.3763 89.0338 86.2127 88.0364 86.2127C87.039 86.2127 86.1841 86.4132 85.5719 86.8248C84.9439 87.2365 84.6273 87.817 84.6273 88.5558Z" fill="#E3DFD6"></path><path d="M156.804 103.094V83.6689H164.699C167.559 83.6689 169.485 84.26 170.509 85.4263C171.427 86.4026 171.887 87.5319 171.887 88.7984C171.887 90.3288 171.391 91.4687 170.393 92.2075C170.066 92.445 169.565 92.7089 168.9 93.0097C170.172 93.2735 171.179 93.8118 171.918 94.6298C172.641 95.4583 173.005 96.4715 173.005 97.6906C173.005 99.2315 172.441 100.514 171.285 101.543C170.129 102.583 168.266 103.1 165.696 103.1H156.799L156.804 103.094ZM164.583 91.7326C167.074 91.7326 168.319 90.9304 168.319 89.3103C168.319 88.3815 168.018 87.7166 167.427 87.305C166.826 86.8881 165.892 86.6928 164.62 86.6928H160.25V91.7326H164.578H164.583ZM160.256 100.071H165.623C166.947 100.071 167.934 99.8701 168.572 99.4585C169.2 99.0574 169.517 98.345 169.517 97.337C169.517 95.6166 168.087 94.7512 165.2 94.7512H160.256V100.071Z" fill="#E3DFD6"></path><path d="M204.489 96.0229L209.798 103.094H205.445L200.579 96.5348H196.093V103.094H192.642V83.6636H200.209C203.276 83.6636 205.481 84.1649 206.832 85.157C208.168 86.1492 208.838 87.764 208.838 89.9857C208.838 93.1837 207.397 95.2049 204.484 96.0176L204.489 96.0229ZM200.331 93.6006C202.246 93.6006 203.555 93.3262 204.278 92.7721C205.001 92.2074 205.355 91.2681 205.355 89.9488C205.355 88.6295 205.001 87.8062 204.278 87.3418C203.555 86.8774 202.273 86.6505 200.421 86.6505H196.093V93.6006H200.331Z" fill="#E3DFD6"></path><path d="M285.886 83.6636H289.284V103.089H285.585L274.086 88.9039V103.089H270.634V83.6636H274.086L285.891 98.1602V83.6636H285.886Z" fill="#E3DFD6"></path><path d="M325.243 97.7275L327.433 99.8701C325.333 102.176 322.737 103.332 319.628 103.332C316.52 103.332 314.003 102.393 311.971 100.498C309.939 98.6036 308.916 96.2077 308.916 93.3263C308.916 90.4449 309.95 87.9963 312.04 86.0754C314.114 84.1545 316.721 83.1887 319.882 83.1887C323.043 83.1887 325.602 84.3022 327.739 86.5239L325.576 88.7932C324.605 87.8907 323.687 87.2628 322.837 86.925C321.971 86.5873 320.963 86.4131 319.808 86.4131C317.723 86.4131 315.992 87.0517 314.589 88.3182C313.195 89.5847 312.488 91.2049 312.488 93.1574C312.488 95.11 313.185 96.7354 314.573 98.0864C315.95 99.4426 317.602 100.108 319.517 100.108C320.673 100.108 321.681 99.9334 322.52 99.5535C323.37 99.1893 324.278 98.5772 325.249 97.7222L325.243 97.7275Z" fill="#E3DFD6"></path><path fill-rule="evenodd" clip-rule="evenodd" d="M351.841 101.728C354.891 97.6273 361.435 97.6273 364.474 101.738C364.78 102.15 365.049 102.604 365.276 103.094H368.934L359.999 83.6689H356.342L347.371 103.094H351.028C351.255 102.598 351.529 102.145 351.841 101.728ZM354.558 95.8435C356.891 95.11 359.44 95.11 361.767 95.8435L358.168 88.0174L354.558 95.8383V95.8435Z" fill="#E3DFD6"></path><path fill-rule="evenodd" clip-rule="evenodd" d="M120.08 101.728C123.13 97.6273 129.674 97.6273 132.714 101.738C133.02 102.15 133.289 102.604 133.516 103.094H137.173L128.238 83.6689H124.581L115.61 103.094H119.267C119.499 102.598 119.768 102.145 120.075 101.728H120.08ZM122.798 95.8435C125.13 95.11 127.679 95.11 130.006 95.8435L126.407 88.0174L122.798 95.8383V95.8435Z" fill="#E3DFD6"></path><path fill-rule="evenodd" clip-rule="evenodd" d="M235.509 101.728C238.559 97.6273 245.103 97.6273 248.143 101.738C248.449 102.15 248.718 102.604 248.945 103.094H252.602L243.668 83.6689H240.01L231.039 103.094H234.696C234.923 102.598 235.198 102.145 235.504 101.728H235.509ZM238.227 95.8435C240.559 95.11 243.108 95.11 245.436 95.8435L241.836 88.0174L238.227 95.8383V95.8435Z" fill="#E3DFD6"></path><path d="M196.056 34.5746C195.666 32.4585 194.7 30.5481 193.323 29.0124H196.252V25.1759H193.323C194.7 23.6402 195.666 21.7298 196.056 19.6137C197.909 20.0411 199.503 21.1335 200.574 22.6322L203.693 20.4C201.93 17.9408 199.233 16.2046 196.115 15.719C195.629 12.6002 193.893 9.89297 191.439 8.13037L189.212 11.2545C190.705 12.3258 191.798 13.9248 192.225 15.7771C190.114 16.1676 188.209 17.1386 186.674 18.516V15.5818H182.842V18.516C181.307 17.1386 179.402 16.1676 177.291 15.7771C177.718 13.9248 178.81 12.3258 180.304 11.2545L178.077 8.13037C175.623 9.89297 173.887 12.5949 173.401 15.719C170.288 16.2046 167.586 17.9408 165.828 20.4L168.947 22.6322C170.019 21.1335 171.612 20.0411 173.465 19.6137C173.855 21.7298 174.821 23.6402 176.198 25.1759H173.269V29.0124H176.198C174.821 30.5481 173.855 32.4585 173.465 34.5746C171.612 34.1472 170.019 33.0548 168.947 31.5561L165.828 33.7883C167.586 36.2475 170.288 37.9837 173.401 38.4692C173.887 41.5881 175.623 44.2953 178.077 46.0579L180.304 42.9338C178.81 41.8625 177.718 40.2635 177.291 38.4112C179.402 38.0207 181.312 37.0497 182.842 35.6723V38.6065H186.674V35.6723C188.209 37.0497 190.114 38.0207 192.225 38.4112C191.798 40.2635 190.705 41.8625 189.212 42.9338L191.439 46.0579C193.893 44.2953 195.629 41.5934 196.115 38.4692C199.228 37.9837 201.93 36.2475 203.693 33.7883L200.574 31.5561C199.503 33.0548 197.909 34.1472 196.056 34.5746ZM177.433 34.4322C178.177 32.0099 180.082 30.0995 182.505 29.3554C181.76 31.7777 179.85 33.6881 177.433 34.4322ZM177.433 19.7614C179.85 20.5055 181.76 22.4159 182.505 24.8381C180.088 24.094 178.177 22.1837 177.433 19.7614ZM187.011 29.3554C189.428 30.0995 191.339 32.0099 192.083 34.4322C189.666 33.6881 187.755 31.7777 187.011 29.3554ZM187.011 24.8381C187.755 22.4159 189.666 20.5055 192.083 19.7614C191.339 22.1837 189.434 24.094 187.011 24.8381Z" fill="#E3DFD6"></path><path fill-rule="evenodd" clip-rule="evenodd" d="M184.758 49.4618C197.091 49.4618 207.091 39.4456 207.091 27.0968C207.091 14.7481 197.091 4.73188 184.758 4.73188C172.425 4.73188 162.425 14.7481 162.425 27.0968C162.425 39.4456 172.425 49.4618 184.758 49.4618ZM184.758 53.235C199.17 53.235 210.859 41.5301 210.859 27.0968C210.859 12.6636 199.17 0.953369 184.758 0.953369C170.346 0.953369 158.657 12.6583 158.657 27.0916C158.657 41.5248 170.34 53.2298 184.758 53.2298V53.235Z" fill="#E3DFD6"></path><path d="M91.224 141.877H89.5616V132.088H92.1422L95.0869 138.236L98.0475 132.088H100.612V141.877H98.971V134.23L95.546 141.017H94.6225L91.2187 134.23V141.877H91.224ZM114.808 139.655L113.826 141.877H112.064L116.386 132.088H118.148L122.455 141.877H120.692L119.711 139.655H114.808ZM119.051 138.114L117.267 134.088L115.483 138.114H119.046H119.051ZM135.236 134.552C135.236 134.964 135.389 135.265 135.695 135.455C136.001 135.681 136.656 135.914 137.658 136.156C138.714 136.41 139.479 136.758 139.959 137.196C140.455 137.634 140.698 138.273 140.698 139.096C140.698 139.919 140.371 140.663 139.717 141.196C139.078 141.729 138.234 141.998 137.194 141.998C135.685 141.998 134.323 141.465 133.109 140.399L134.149 139.159C135.162 140.025 136.191 140.463 137.231 140.463C137.753 140.463 138.17 140.352 138.492 140.125C138.814 139.882 138.972 139.576 138.972 139.201C138.972 138.827 138.825 138.536 138.534 138.32C138.255 138.109 137.748 137.914 137.015 137.74C135.748 137.444 134.867 137.101 134.371 136.7C133.796 136.262 133.511 135.586 133.511 134.679C133.511 133.771 133.832 133.111 134.471 132.615C135.11 132.109 135.933 131.855 136.935 131.855C138.281 131.855 139.437 132.251 140.397 133.038L139.516 134.278C139.221 134.009 138.83 133.797 138.334 133.639C137.838 133.465 137.352 133.381 136.872 133.381C136.392 133.381 135.98 133.486 135.669 133.703C135.373 133.903 135.231 134.188 135.231 134.563L135.236 134.552ZM156.551 133.592V141.882H154.889V133.592H151.928V132.088H159.517V133.592H156.551ZM178.309 132.088V133.629H173.085V136.23H177.771V137.692H173.085V140.315H178.473V141.877H171.428V132.088H178.314H178.309ZM196.384 138.315L198.948 141.877H196.848L194.505 138.573H192.341V141.877H190.679V132.088H194.32C195.803 132.088 196.864 132.341 197.502 132.848C198.157 133.344 198.484 134.151 198.484 135.27C198.484 136.885 197.782 137.898 196.384 138.315ZM194.384 137.096C195.307 137.096 195.94 136.953 196.283 136.674C196.632 136.394 196.806 135.919 196.806 135.254C196.806 134.589 196.632 134.177 196.283 133.951C195.935 133.708 195.318 133.592 194.42 133.592H192.341V137.096H194.384ZM212.643 141.882H210.98V132.093H213.561L216.506 138.241L219.466 132.093H222.031V141.882H220.39V134.236L216.965 141.022H216.041L212.638 134.236V141.882H212.643ZM234.849 132.093H236.512V141.882H234.849V132.093ZM256.655 132.093H258.296V141.882H256.513L250.966 134.737V141.882H249.304V132.093H250.966L256.65 139.402V132.093H256.655ZM274.487 132.093C276.234 132.093 277.585 132.52 278.529 133.375C279.479 134.214 279.949 135.402 279.949 136.937C279.949 138.473 279.479 139.713 278.545 140.579C277.611 141.444 276.218 141.882 274.36 141.882H271.115V132.093H274.476H274.487ZM274.429 133.613H272.788V140.32H274.608C275.811 140.32 276.724 140.04 277.352 139.481C277.98 138.906 278.292 138.072 278.292 136.98C278.292 134.737 277.004 133.618 274.429 133.618V133.613Z" fill="#E3DFD6"></path></svg>